# xmcd
#
# Track frame offsets:
#	150
#	15731
#	38700
#	56211
#	68767
#	85111
#	105124
#	120181
#	143357
#	163552
#	184104
#	202376
#	214250
#	233797
#	249215
#	267782
#	286045
#	302211
#
# Disc length: 4238 seconds
#
# Revision: 1
# Processed by: cddbd v1.5.2PL0 Copyright (c) Steve Scherf et al.
# Submitted via: audiograbber 1.83.01
#
DISCID=ec108c12
DTITLE=Various Artist - Acoustic and Blues Company - Rare and Vintage
DYEAR=1900
DGENRE=
TTITLE0=Neil Young - Heart of Gold
TTITLE1=Bob Dylan - The times are changing
TTITLE2=Gary Davis - Baby let me lay on you
TTITLE3=Melanie Safka - Brand new car
TTITLE4=Jimmy Cox - Nobody knows you when you are down and out
TTITLE5=Bob Dylan - Don't think twice it's allright
TTITLE6=Jesse Fuller - San Francisco Bay Blues
TTITLE7=M. Jagger  and K. Richards - Angie
TTITLE8=Kris Kristofferson - Bobby McGee
TTITLE9=Brownie McGee - Walk on
TTITLE10=Delmore Brothers - Freight train boogie
TTITLE11=John  Fogerty - Have you ever seen the rain
TTITLE12=Doc Watson - Deep river blues
TTITLE13=Robert Johnson - Malted Milk
TTITLE14=Paul Simon - The Boxer
TTITLE15=Noel Gallagher - Don't look back in anger
TTITLE16=Norah Jones - Come away with me
TTITLE17=Bob Dylan - Knockin' on heavens door
EXTD=
EXTT0=
EXTT1=
EXTT2=
EXTT3=
EXTT4=
EXTT5=
EXTT6=
EXTT7=
EXTT8=
EXTT9=
EXTT10=
EXTT11=
EXTT12=
EXTT13=
EXTT14=
EXTT15=
EXTT16=
EXTT17=
PLAYORDER=
